<?xml version="1.0" encoding="utf-8"?>
<svg viewBox="0 0 512 512" xmlns="http://www.w3.org/2000/svg">
  <path style="fill: rgb(86, 179, 185);" d="M 253.089 511.978 C 241.325 511.978 229.541 511.173 217.886 509.5 L 222.011 478.585 C 232.312 480.015 242.699 480.753 253.065 480.753 L 255.313 480.753 L 255.531 512 Z M 293.198 508.829 L 288.55 477.96 C 293.963 477.112 299.44 476.017 304.723 474.812 C 310.047 473.584 315.764 471.997 321.11 470.344 L 329.971 500.252 C 317.927 503.994 305.639 506.86 293.198 508.829 Z M 180.918 501.505 C 168.799 497.903 156.953 493.402 145.476 488.033 L 158.178 459.646 C 168.304 464.38 178.758 468.335 189.451 471.528 Z M 365.194 486.426 L 352.252 458.126 C 362.328 453.281 372.051 447.698 381.343 441.421 L 398.126 467.486 C 387.606 474.612 376.608 480.932 365.194 486.426 Z M 112.371 469.384 C 101.793 462.321 91.741 454.469 82.298 445.887 L 102.572 422.569 C 110.886 430.096 119.704 437.019 129 443.206 Z M 428.023 443.967 L 407.685 420.691 C 415.955 413.098 423.681 404.901 430.795 396.146 L 454.277 416.159 C 446.203 426.098 437.429 435.412 428.046 444.055 Z M 55.978 418.011 C 47.919 408.009 40.631 397.384 34.178 386.229 L 60.409 370.349 C 66.085 380.063 72.455 389.356 79.504 398.088 Z M 476.232 384.708 L 450.196 368.471 C 455.957 358.755 460.999 348.614 465.275 338.14 L 493.47 350.202 C 488.584 362.106 482.845 373.652 476.275 384.708 Z M 17.44 351.362 C 12.752 339.338 8.994 326.956 6.2 314.329 L 35.924 307.382 C 38.411 318.417 41.684 329.251 45.787 339.793 Z M 505.366 313.302 L 475.774 305.798 C 478.435 294.786 480.269 283.55 481.25 272.271 L 511.652 274.907 C 510.541 287.892 508.438 300.767 505.366 313.414 Z M 0.59 276.07 C -0.288 263.155 -0.186 250.192 0.897 237.295 L 31.297 239.953 C 30.352 251.237 30.262 262.581 31.035 273.881 Z M 481.535 238.455 C 480.792 227.145 479.18 215.913 476.712 204.863 L 506.259 196.911 L 506.523 198.095 C 509.315 210.692 511.128 223.491 512 236.356 Z M 36.816 206.471 L 7.16 199.012 C 10.215 186.458 14.166 174.151 19.01 162.18 L 47.162 174.196 C 42.909 184.667 39.452 195.457 36.816 206.471 Z M 466.715 171.672 C 462.589 161.161 457.68 150.991 452.029 141.252 L 478.241 125.371 C 484.698 136.516 490.309 148.131 495.044 160.147 Z M 62.199 143.841 L 36.118 127.647 C 42.646 116.613 49.979 106.072 58.031 96.155 L 81.512 116.1 C 74.419 124.855 67.982 134.126 62.199 143.841 Z M 432.846 113.533 C 425.74 104.816 418.008 96.657 409.714 89.118 L 429.987 65.757 C 439.415 74.356 448.231 83.646 456.285 93.586 Z M 104.6 91.555 L 84.197 68.302 C 93.603 59.703 103.575 51.773 114.094 44.648 L 130.92 70.69 C 121.667 76.968 112.872 83.937 104.6 91.555 Z M 383.263 68.525 C 373.934 62.345 364.166 56.887 354.041 52.198 L 366.699 23.743 C 378.201 29.08 389.287 35.268 399.872 42.282 Z M 159.989 53.984 L 147.048 25.708 C 158.449 20.23 170.222 15.593 182.27 11.836 L 191.109 41.566 C 180.481 44.961 170.049 49.116 159.989 53.984 Z M 322.836 40.36 C 312.142 37.211 301.229 34.842 290.209 33.325 L 294.29 2.366 C 306.783 4.102 319.138 6.752 331.259 10.297 Z M 223.648 34.062 L 218.956 3.215 C 231.394 1.25 243.965 0.156 256.58 0 L 256.885 31.225 C 245.757 31.381 234.668 32.321 223.648 34.062 Z" class="cls-2"/>
  <path style="text-transform: capitalize; white-space: pre; fill: rgb(40, 13, 95);" d="M 242.945 404.406 C 223.417 404.513 205.033 403.148 187.865 400.316 C 172.906 397.956 158.265 393.861 144.23 388.109 L 144.23 323.681 C 157.608 329.464 172.628 334.287 189.296 338.075 C 204.584 341.321 220.163 342.954 235.794 342.947 C 253.89 342.847 267.482 341.09 276.568 337.598 C 285.652 334.108 290.158 326.762 290.159 315.559 C 290.454 308.607 288.151 301.814 283.721 296.56 C 277.543 290.887 270.218 286.68 262.261 284.232 C 252.246 280.845 238.653 276.528 221.487 271.274 C 204.638 266.904 188.501 260.091 173.558 251.04 C 162.646 244.415 153.738 234.84 147.806 223.36 C 142.285 210.734 139.595 196.991 139.939 183.136 C 139.94 154.361 149.953 132.051 169.983 116.347 C 190.011 101.082 219.841 93.377 259.4 93.161 C 276.566 93.067 293.235 94.222 309.473 96.547 C 325.711 99.388 338.803 102.463 348.816 105.85 L 348.814 170.277 C 336.096 165.168 322.923 161.319 309.472 158.778 C 296.487 156.456 283.322 155.305 270.128 155.332 C 256.599 155.032 243.095 156.835 230.069 160.679 C 220.055 163.662 215.049 170.789 215.049 181.991 C 215.048 188.799 216.98 194.207 220.77 198.067 C 224.133 201.928 230.286 205.336 239.37 208.216 C 248.454 211.094 260.831 214.688 276.567 218.994 C 300.387 225.673 318.771 233.625 331.649 242.853 C 344.525 252.079 353.323 262.502 358.116 274.189 C 363.337 286.387 365.984 299.99 365.985 315.145 C 365.984 341.503 355.754 363.009 335.225 379.741 C 315.196 395.957 284.436 404.179 242.945 404.406 Z"/>
</svg>