<?xml version="1.0" encoding="utf-8"?>
<svg viewBox="0 0 160 26" color="text" xmlns="http://www.w3.org/2000/svg">
  <g transform="matrix(1, 0, 0, 1, -36.246117, 44.007298)">
    <title>Swap</title>
    <path d="M 95.063 -27.378 C 94.79 -27.378 94.533 -27.398 94.293 -27.438 C 94.06 -27.478 93.856 -27.535 93.683 -27.608 L 93.683 -28.488 C 93.87 -28.408 94.08 -28.341 94.313 -28.288 C 94.54 -28.241 94.756 -28.218 94.963 -28.218 C 95.216 -28.218 95.406 -28.241 95.533 -28.288 C 95.66 -28.335 95.723 -28.435 95.723 -28.588 C 95.723 -28.695 95.693 -28.781 95.633 -28.848 C 95.566 -28.915 95.466 -28.971 95.333 -29.018 C 95.193 -29.065 95.003 -29.125 94.763 -29.198 C 94.483 -29.278 94.26 -29.371 94.093 -29.478 C 93.926 -29.585 93.806 -29.711 93.733 -29.858 C 93.66 -30.011 93.623 -30.195 93.623 -30.408 C 93.623 -30.801 93.763 -31.105 94.043 -31.318 C 94.323 -31.525 94.74 -31.628 95.293 -31.628 C 95.533 -31.628 95.766 -31.611 95.993 -31.578 C 96.22 -31.538 96.403 -31.495 96.543 -31.448 L 96.543 -30.568 C 96.356 -30.641 96.173 -30.695 95.993 -30.728 C 95.806 -30.761 95.623 -30.778 95.443 -30.778 C 95.216 -30.778 95.03 -30.755 94.883 -30.708 C 94.743 -30.668 94.673 -30.571 94.673 -30.418 C 94.673 -30.325 94.7 -30.251 94.753 -30.198 C 94.8 -30.145 94.886 -30.098 95.013 -30.058 C 95.14 -30.018 95.313 -29.968 95.533 -29.908 C 95.866 -29.815 96.123 -29.705 96.303 -29.578 C 96.483 -29.451 96.606 -29.308 96.673 -29.148 C 96.746 -28.981 96.783 -28.795 96.783 -28.588 C 96.783 -28.228 96.64 -27.935 96.353 -27.708 C 96.073 -27.488 95.643 -27.378 95.063 -27.378 ZM 98.768 -27.438 L 97.818 -27.438 L 97.018 -30.478 L 98.028 -30.478 L 98.438 -28.728 L 98.868 -30.058 L 98.868 -30.478 L 99.648 -30.478 L 100.148 -28.728 L 100.538 -30.478 L 101.548 -30.478 L 100.748 -27.438 L 99.818 -27.438 L 99.298 -29.018 L 98.768 -27.438 ZM 102.732 -27.378 C 102.545 -27.378 102.369 -27.411 102.202 -27.478 C 102.035 -27.545 101.905 -27.651 101.812 -27.798 C 101.712 -27.938 101.662 -28.115 101.662 -28.328 C 101.662 -28.641 101.769 -28.885 101.982 -29.058 C 102.189 -29.238 102.505 -29.328 102.932 -29.328 L 103.772 -29.328 L 103.772 -29.398 C 103.772 -29.551 103.722 -29.661 103.622 -29.728 C 103.522 -29.795 103.329 -29.828 103.042 -29.828 C 102.695 -29.828 102.355 -29.775 102.022 -29.668 L 102.022 -30.338 C 102.175 -30.398 102.359 -30.445 102.572 -30.478 C 102.792 -30.518 103.019 -30.538 103.252 -30.538 C 103.725 -30.538 104.095 -30.441 104.362 -30.248 C 104.629 -30.055 104.762 -29.751 104.762 -29.338 L 104.762 -27.438 L 103.862 -27.438 L 103.802 -27.698 C 103.695 -27.591 103.555 -27.511 103.382 -27.458 C 103.209 -27.405 102.992 -27.378 102.732 -27.378 Z M 103.062 -28.008 C 103.229 -28.008 103.369 -28.035 103.482 -28.088 C 103.602 -28.148 103.699 -28.218 103.772 -28.298 L 103.772 -28.728 L 103.042 -28.728 C 102.742 -28.728 102.592 -28.608 102.592 -28.368 C 102.592 -28.255 102.629 -28.168 102.702 -28.108 C 102.782 -28.041 102.902 -28.008 103.062 -28.008 ZM 106.416 -26.058 L 105.386 -26.058 L 105.386 -30.478 L 106.276 -30.478 L 106.326 -30.208 C 106.452 -30.315 106.592 -30.395 106.746 -30.448 C 106.899 -30.508 107.079 -30.538 107.286 -30.538 C 107.719 -30.538 108.059 -30.421 108.306 -30.188 C 108.559 -29.955 108.686 -29.565 108.686 -29.018 C 108.686 -28.478 108.556 -28.068 108.296 -27.788 C 108.042 -27.515 107.689 -27.378 107.236 -27.378 C 106.916 -27.378 106.642 -27.441 106.416 -27.568 L 106.416 -26.058 Z M 106.976 -28.128 C 107.416 -28.128 107.636 -28.431 107.636 -29.038 C 107.636 -29.331 107.586 -29.528 107.486 -29.628 C 107.379 -29.728 107.212 -29.778 106.986 -29.778 C 106.772 -29.778 106.582 -29.701 106.416 -29.548 L 106.416 -28.318 C 106.496 -28.258 106.576 -28.211 106.656 -28.178 C 106.742 -28.145 106.849 -28.128 106.976 -28.128 Z" transform="matrix(3.2778429985046387, -0.01752999983727932, 0, 3.2778429985046387, -235.97032165527344, 67.2387466430664)" style="text-transform: capitalize; white-space: pre; fill: rgb(40, 13, 95);"/>
  </g>
</svg>